<svg class="task-image__source" xmlns="http://www.w3.org/2000/svg"
     xmlns:xlink="http://www.w3.org/1999/xlink"
     version="1.1" width="100%" viewBox="0 -65.553 89.889 65.553" preserveAspectRatio="xMinYMin">
    <g id="page1">
        <g transform="matrix(1 0 0 -1 0 0)">
            <path d="M4.253906 60.9453V4.253906H89.293" stroke="#000" fill="none" stroke-width="1.19553"
                  stroke-miterlimit="10"></path>
            <path d="M0 60.9453V0H89.293V4.253906H4.253906V60.9453H0Z"></path>
            <path
                    d="M27.2109 6.24609V47.6133C27.2109 48.7148 28.1055 49.6055 29.207 49.6055H70.5742C71.6758 49.6055 72.5664 48.7148 72.5664 47.6133V6.24609C72.5664 5.144531 71.6758 4.253906 70.5742 4.253906H29.207C28.1055 4.253906 27.2109 5.144531 27.2109 6.24609Z"
                    fill="#ccc"></path>
            <path
                    d="M27.2109 6.24609V47.6133C27.2109 48.7148 28.1055 49.6055 29.207 49.6055H70.5742C71.6758 49.6055 72.5664 48.7148 72.5664 47.6133V6.24609C72.5664 5.144531 71.6758 4.253906 70.5742 4.253906H29.207C28.1055 4.253906 27.2109 5.144531 27.2109 6.24609Z"
                    stroke="#000" fill="none" stroke-width=".3985" stroke-miterlimit="10"></path>
            <path
                    d="M46.392555 25.371836C46.362555 25.222461 46.302867 24.993086 46.302867 24.943398C46.302867 24.764023 46.442243 24.674336 46.59193 24.674336C46.7113 24.674336 46.89068 24.754023 46.96037 24.953398C46.97037 24.973398 47.08974 25.441523 47.14974 25.690586L47.36881 26.58715C47.42849 26.80621 47.48818 27.02527 47.53818 27.25434C47.57787 27.42371 47.65756 27.71277 47.66756 27.75246C47.81693 28.06121 48.34506 28.96777 49.29131 28.96777C49.73943 28.96777 49.82912 28.59902 49.82912 28.27059C49.82912 28.02152 49.75943 27.74246 49.67974 27.44371L49.40099 26.28809L49.20162 25.531211C49.16193 25.331836 49.07224 24.993086 49.07224 24.943398C49.07224 24.764023 49.21162 24.674336 49.36099 24.674336C49.66974 24.674336 49.72974 24.923398 49.80943 25.242148C49.94881 25.79996 50.31724 27.25434 50.40693 27.64277C50.43693 27.77246 50.96474 28.96777 52.05068 28.96777C52.4788 28.96777 52.58849 28.62902 52.58849 28.27059C52.58849 27.70277 52.17006 26.56715 51.97099 26.03902C51.8813 25.79996 51.8413 25.690586 51.8413 25.491211C51.8413 25.023086 52.19006 24.674336 52.65818 24.674336C53.59443 24.674336 53.96318 26.12871 53.96318 26.2084C53.96318 26.30809 53.87349 26.30809 53.84349 26.30809C53.74381 26.30809 53.74381 26.27809 53.69412 26.12871C53.54474 25.600898 53.22599 24.893711 52.67818 24.893711C52.50881 24.893711 52.43912 24.993086 52.43912 25.222461C52.43912 25.471211 52.5288 25.710273 52.61849 25.92965C52.80755 26.44746 53.22599 27.5534 53.22599 28.1209C53.22599 28.7684 52.82755 29.18684 52.08037 29.18684C51.33349 29.18684 50.82537 28.74871 50.45662 28.22059C50.44693 28.35027 50.41693 28.68871 50.13787 28.92777C49.88912 29.13715 49.57006 29.18684 49.32131 29.18684C48.42474 29.18684 47.93662 28.54934 47.76724 28.32027C47.71756 28.88809 47.29912 29.18684 46.85068 29.18684C46.392555 29.18684 46.20318 28.7984 46.113805 28.61902C45.93443 28.27059 45.804743 27.68277 45.804743 27.65277C45.804743 27.5534 45.90443 27.5534 45.92443 27.5534C46.024117 27.5534 46.034118 27.56309 46.093805 27.78246C46.26318 28.48965 46.462243 28.96777 46.82099 28.96777C46.98037 28.96777 47.12974 28.88809 47.12974 28.50965C47.12974 28.30027 47.09974 28.1909 46.97037 27.67277L46.392555 25.371836Z"></path>
            <path
                    d="M26.9297 33.7344C26.9297 39.9961 21.8516 45.0703 15.5898 45.0703C9.32813 45.0703 4.253906 39.9961 4.253906 33.7344M4.253906 20.125C4.253906 13.86328 9.32813 8.78906 15.5898 8.78906C21.8516 8.78906 26.9297 13.86328 26.9297 20.125"
                    stroke="#00f" fill="none" stroke-width="1.59404" stroke-miterlimit="10"></path>
            <path d="M4.253906 33.7344V20.125" stroke="#00f" fill="none" stroke-width="1.59404"
                  stroke-miterlimit="10"></path>
            <path
                    d="M4.253906 25.57032C4.628906 27.58595 5.76563 30.8672 7.08984 33.140634H1.41406C2.73828 30.8672 3.875 27.58595 4.253906 25.57032"
                    fill="#00f"></path>
            <path d="M26.9297 20.125V33.7344" stroke="#00f" fill="none" stroke-width="1.59404"
                  stroke-miterlimit="10"></path>
            <path
                    d="M26.929668 28.28905C26.550762 26.26952 25.41404 22.98827 24.08982 20.71874H29.76951C28.44529 22.98827 27.308574 26.26952 26.929668 28.28905"
                    fill="#00f"></path>
            <path d="M7.83984 53.8594H23.3438" stroke="#000" fill="none" stroke-width=".3985"
                  stroke-miterlimit="10"></path>
            <path
                    d="M4.25391 53.859377C5.31641 53.660158 7.042969 53.062502 8.238282 52.36328V55.35156C7.042969 54.656252 5.31641 54.058596 4.25391 53.859377"></path>
            <path
                    d="M26.92972 53.859377C25.86722 54.058596 24.140657 54.656252 22.945345 55.35156V52.36328C24.140657 53.062502 25.86722 53.660158 26.92972 53.859377"></path>
            <path
                    d="M15.31361 61.99484C14.98205 61.93202 14.8833 61.64515 14.8833 61.51077C14.8833 61.34046 15.00892 61.18796 15.23299 61.18796C15.48392 61.18796 15.72611 61.40296 15.72611 61.71671C15.72611 62.12921 15.27767 62.33546 14.85642 62.33546C14.31861 62.33546 14.00486 61.86015 13.89736 61.67202C13.72705 62.1114 13.33236 62.33546 12.90205 62.33546C11.94299 62.33546 11.422987 61.18796 11.422987 60.95484C11.422987 60.87421 11.485799 60.84734 11.548299 60.84734C11.629237 60.84734 11.656112 60.89202 11.673924 60.94577C11.95174 61.83327 12.54361 62.1114 12.88424 62.1114C13.14424 62.1114 13.37736 61.94109 13.37736 61.51952C13.37736 61.19702 12.99174 59.76265 12.87517 59.332337C12.80361 59.054212 12.53455 58.498587 12.04142 58.498587C11.862362 58.498587 11.673924 58.561087 11.584237 58.615149C11.826424 58.659837 12.0058 58.866087 12.0058 59.099212C12.0058 59.323274 11.835174 59.42171 11.664862 59.42171C11.404862 59.42171 11.172049 59.197649 11.172049 58.892962C11.172049 58.453587 11.656112 58.274212 12.03267 58.274212C12.55236 58.274212 12.85736 58.704524 12.99174 58.946712C13.2158 58.355149 13.74486 58.274212 13.98674 58.274212C14.95517 58.274212 15.46611 59.43984 15.46611 59.65484C15.46611 59.69984 15.43924 59.76265 15.34955 59.76265C15.2508 59.76265 15.24205 59.72671 15.19705 59.59202C14.99986 58.946712 14.47986 58.498587 14.01392 58.498587C13.75392 58.498587 13.51174 58.659837 13.51174 59.090149C13.51174 59.287337 13.63736 59.78046 13.71799 60.12109C13.75392 60.28234 13.9958 61.25077 14.01392 61.31327C14.12142 61.63609 14.39017 62.1114 14.84736 62.1114C15.00892 62.1114 15.17924 62.08452 15.31361 61.99484Z"></path>
            <path
                    d="M19.41516 59.28423C19.41516 59.72079 19.41516 61.35266 17.95048 61.35266C16.485788 61.35266 16.485788 59.72079 16.485788 59.28423C16.485788 58.8536 16.485788 57.251413 17.95048 57.251413C19.41516 57.251413 19.41516 58.8536 19.41516 59.28423ZM17.95048 57.442663C17.69954 57.442663 17.29298 57.562351 17.14923 58.058601C17.053601 58.40548 17.053601 58.9911 17.053601 59.36204C17.053601 59.76235 17.053601 60.22298 17.13735 60.54579C17.28673 61.0836 17.7411 61.16141 17.95048 61.16141C18.22548 61.16141 18.62016 61.02985 18.75173 60.57548C18.84141 60.2586 18.84735 59.82235 18.84735 59.36204C18.84735 58.97923 18.84735 58.375476 18.74579 58.040788C18.57829 57.520476 18.14766 57.442663 17.95048 57.442663Z"></path>
            <path d="M26.9297 45.0703V58.1094" stroke="#000" fill="none" stroke-width=".3985"
                  stroke-miterlimit="10" stroke-dasharray="2.98883,2.98883"></path>
            <path
                    d="M18.4258 36C18.4258 37.5664 17.1563 38.8359 15.5898 38.8359C14.02344 38.8359 12.75391 37.5664 12.75391 36S14.02344 33.1641 15.5898 33.1641C17.1563 33.1641 18.4258 34.4336 18.4258 36ZM18.4258 17.8594C18.4258 19.4258 17.1563 20.6914 15.5898 20.6914C14.02344 20.6914 12.75391 19.4258 12.75391 17.8594S14.02344 15.0234 15.5898 15.0234C17.1563 15.0234 18.4258 16.293 18.4258 17.8594Z"
                    stroke="#000" fill="none" stroke-width=".3985" stroke-miterlimit="10"></path>
            <path
                    d="M16.1563 36C16.1563 36.3125 15.9023 36.5664 15.5898 36.5664S15.0234 36.3125 15.0234 36S15.2773 35.4336 15.5898 35.4336S16.1563 35.6875 16.1563 36ZM16.1563 17.8594C16.1563 18.1719 15.9023 18.4258 15.5898 18.4258S15.0234 18.1719 15.0234 17.8594S15.2773 17.293 15.5898 17.293S16.1563 17.5469 16.1563 17.8594Z"></path>
            <path
                    d="M16.1563 36C16.1563 36.3125 15.9023 36.5664 15.5898 36.5664S15.0234 36.3125 15.0234 36S15.2773 35.4336 15.5898 35.4336S16.1563 35.6875 16.1563 36ZM16.1563 17.8594C16.1563 18.1719 15.9023 18.4258 15.5898 18.4258S15.0234 18.1719 15.0234 17.8594S15.2773 17.293 15.5898 17.293S16.1563 17.5469 16.1563 17.8594Z"
                    stroke="#000" fill="none" stroke-width=".3985" stroke-miterlimit="10"></path>
            <path
                    d="M13.7363 25.09008C13.67348 24.852892 13.65942 24.797267 13.122546 24.797267C13.003796 24.797267 12.913171 24.797267 12.913171 24.650705C12.913171 24.546017 12.996921 24.546017 13.122546 24.546017H15.82161C16.99348 24.546017 17.89348 25.348205 17.89348 26.03852C17.89348 26.53383 17.44005 26.95946 16.70067 27.03602C17.54473 27.18946 18.24911 27.71977 18.24911 28.31945C18.24911 28.84945 17.71192 29.31008 16.80536 29.31008H14.2663C14.1338 29.31008 14.04317 29.31008 14.04317 29.15664C14.04317 29.05883 14.12692 29.05883 14.2663 29.05883C14.27317 29.05883 14.40598 29.05883 14.5313 29.04477C14.67786 29.03102 14.69192 29.01695 14.69192 28.94727C14.69192 28.93321 14.69192 28.89852 14.6638 28.79383L13.7363 25.09008ZM14.85223 27.11977L15.27786 28.82164C15.33348 29.03789 15.34036 29.05883 15.63348 29.05883H16.69348C17.40505 29.05883 17.56536 28.59164 17.56536 28.32633C17.56536 27.76164 16.93067 27.11977 15.99598 27.11977H14.85223ZM14.51755 24.797267C14.3013 24.797267 14.29411 24.804142 14.29411 24.866955C14.29411 24.87383 14.29411 24.90883 14.32223 25.013205L14.80348 26.92445H16.28223C16.93786 26.92445 17.1888 26.49195 17.1888 26.08758C17.1888 25.396955 16.48442 24.797267 15.64036 24.797267H14.51755Z"></path>
        </g>
    </g>
</svg>