<svg xmlns="http://www.w3.org/2000/svg" xmlns:xlink="http://www.w3.org/1999/xlink" version="1.1" width="100%"
     viewBox="0 -12.124 71.521 12.124">
    <g id="page1">
        <g transform="matrix(1 0 0 -1 0 0)">
            <path d="M3.72563 9.47259C3.815 9.83103 3.845 9.93072 4.63188 9.93072C4.87094 9.93072 4.95062 9.93072 4.95062 10.12009C4.95062 10.23947 4.84125 10.23947 4.80125 10.23947C4.5125 10.23947 3.77531 10.20978 3.48656 10.20978C3.1875 10.20978 2.46031 10.23947 2.16156 10.23947C2.09188 10.23947 1.9625 10.23947 1.9625 10.0404C1.9625 9.93072 2.05188 9.93072 2.24125 9.93072C2.65969 9.93072 2.92875 9.93072 2.92875 9.74134C2.92875 9.69165 2.92875 9.67165 2.90875 9.58197L1.56406 4.212905C1.47438 3.844468 1.44438 3.74478 .6575 3.74478C.428438 3.74478 .33875 3.74478 .33875 3.545717C.33875 3.43603 .458125 3.43603 .488125 3.43603C.776875 3.43603 1.50406 3.46603 1.79313 3.46603C2.09188 3.46603 2.82906 3.43603 3.12781 3.43603C3.2075 3.43603 3.32719 3.43603 3.32719 3.625405C3.32719 3.74478 3.2475 3.74478 3.02813 3.74478C2.84906 3.74478 2.79906 3.74478 2.6 3.76478C2.39063 3.78478 2.35094 3.824467 2.35094 3.934155C2.35094 4.013842 2.37063 4.09353 2.39063 4.163217L3.72563 9.47259Z"></path>
            <path d="M14.77245 6.69322C14.92183 6.69322 15.1112 6.69322 15.1112 6.89259C15.1112 7.09165 14.92183 7.09165 14.78245 7.09165H8.815576C8.676201 7.09165 8.486826 7.09165 8.486826 6.89259C8.486826 6.69322 8.676201 6.69322 8.825576 6.69322H14.77245ZM14.78245 4.76072C14.92183 4.76072 15.1112 4.76072 15.1112 4.96009C15.1112 5.15947 14.92183 5.15947 14.77245 5.15947H8.825576C8.676201 5.15947 8.486826 5.15947 8.486826 4.96009C8.486826 4.76072 8.676201 4.76072 8.815576 4.76072H14.78245Z"></path>
            <path d="M26.48828 11.36178C26.55797 11.63365 26.66984 11.85678 27.22766 11.87084C27.26266 11.87084 27.36734 11.87771 27.36734 12.02428C27.36734 12.06615 27.33234 12.12209 27.26266 12.12209C27.03953 12.12209 26.77422 12.09396 26.54422 12.09396C26.31391 12.09396 26.02109 12.12209 25.81172 12.12209C25.77703 12.12209 25.67234 12.12209 25.67234 11.96865C25.67234 11.87771 25.76297 11.87084 25.82578 11.87084C26.15359 11.86397 26.27203 11.75928 26.27203 11.5849C26.27203 11.5499 26.26516 11.51522 26.25828 11.48709C26.15359 11.03397 25.64453 8.93428 25.55359 8.71803C25.16297 7.825215 24.34703 7.46959 23.77516 7.46959C23.30766 7.46959 22.81266 7.706778 22.81266 8.3974C22.81266 8.56459 22.83359 8.73209 22.87516 8.8924L23.55203 11.57803C23.61453 11.8149 23.62859 11.87084 24.16578 11.87084C24.28422 11.87084 24.37484 11.87084 24.37484 12.02428C24.37484 12.05209 24.35391 12.12209 24.26328 12.12209C24.06109 12.12209 23.55203 12.09396 23.34953 12.09396C23.23109 12.09396 22.98703 12.09396 22.86828 12.10115C22.72891 12.10803 22.56141 12.12209 22.428907 12.12209C22.387032 12.12209 22.282344 12.12209 22.282344 11.96865C22.282344 11.87084 22.366094 11.87084 22.505782 11.87084C22.512657 11.87084 22.64516 11.87084 22.77078 11.85678C22.91703 11.84303 22.93109 11.82896 22.93109 11.75928C22.93109 11.7174 22.86141 11.44553 22.81953 11.29178L22.66609 10.67803L22.268594 9.08084C22.198594 8.7949 22.198594 8.73896 22.198594 8.59959C22.198594 7.73459 22.91016 7.218653 23.74703 7.218653C24.70984 7.218653 25.64453 7.99959 25.87453 8.91334L26.48828 11.36178Z"></path>
            <path d="M19.640626 5.925781H29.6484" stroke="#000" fill="none" stroke-width=".398"
                  stroke-miterlimit="10"></path>
            <path d="M21.54408 2.32969C22.08814 2.32969 22.47876 1.95313 22.47876 1.20656C22.47876 .341875 21.97658 .08375 21.5722 .08375C21.29314 .08375 20.67939 .160313 20.386262 .571875C20.71407 .585938 20.79095 .815938 20.79095 .9625C20.79095 1.18562 20.62345 1.34625 20.4072 1.34625C20.211887 1.34625 20.016575 1.2275 20.016575 .941562C20.016575 .285937 20.7422-.139375 21.58595-.139375C22.55564-.139375 23.22501 .509063 23.22501 1.20656C23.22501 1.75063 22.77876 2.29469 22.01158 2.45531C22.74376 2.72031 23.00908 3.24344 23.00908 3.66875C23.00908 4.22 22.37408 4.63125 21.60001 4.63125C20.82564 4.63125 20.232825 4.25469 20.232825 3.69688C20.232825 3.45969 20.386262 3.32719 20.595638 3.32719C20.81189 3.32719 20.95126 3.4875 20.95126 3.68281C20.95126 3.885 20.81189 4.03156 20.595638 4.04563C20.8397 4.3525 21.32095 4.42906 21.57907 4.42906C21.89283 4.42906 22.33251 4.27563 22.33251 3.66875C22.33251 3.37594 22.2347 3.055 22.05345 2.83875C21.82314 2.57375 21.62783 2.55969 21.27908 2.53875C21.1047 2.525 21.09095 2.525 21.05595 2.51813C21.04189 2.51813 20.98626 2.50406 20.98626 2.42719C20.98626 2.32969 21.04908 2.32969 21.16751 2.32969H21.54408Z"></path>
            <path d="M26.49159 4.27563C26.54034 4.47094 26.5544 4.49188 26.70784 4.51281H27.15441C27.80284 4.51281 28.60503 4.51281 28.60503 3.79437C28.60503 3.50844 28.47253 3.06906 28.14472 2.81781C27.85878 2.59469 27.42628 2.48312 26.94503 2.48312H26.04534L26.49159 4.27563ZM27.75409 2.37156C28.58409 2.56687 29.32347 3.06906 29.32347 3.68969C29.32347 4.28969 28.61191 4.76406 27.60066 4.76406H25.45941C25.3269 4.76406 25.23628 4.76406 25.23628 4.61062C25.23628 4.51281 25.31972 4.51281 25.45941 4.51281C25.46628 4.51281 25.59878 4.51281 25.7244 4.49875C25.87097 4.485 25.88472 4.47094 25.88472 4.40125C25.88472 4.38719 25.88472 4.3525 25.8569 4.24781L24.92909 .544062C24.87347 .306875 24.8594 .25125 24.315342 .25125C24.196905 .25125 24.10628 .25125 24.10628 .104687C24.10628 .035 24.15503 0 24.217843 0C24.350343 0 24.510655 .020938 24.65034 .020938C24.78284 .020938 24.98503 .027813 25.11066 .027813C25.25003 .027813 25.41065 .020938 25.5569 .020938C25.70347 .020938 25.87784 0 26.0244 0C26.05909 0 26.17065 0 26.17065 .146563C26.17065 .25125 26.10097 .25125 25.94065 .25125C25.82909 .25125 25.80097 .25125 25.67566 .265C25.52222 .285937 25.52222 .3 25.52222 .369687C25.52222 .376563 25.52222 .418438 25.55003 .523125L25.98941 2.28781H26.93816C27.53784 2.28781 27.79597 1.98781 27.79597 1.66C27.79597 1.56938 27.73316 1.33219 27.69847 1.17188C27.61472 .850937 27.58659 .74625 27.58659 .627813C27.58659 .076875 28.09597-.139375 28.61191-.139375C29.25378-.139375 29.53284 .544062 29.53284 .669688C29.53284 .690625 29.51878 .767187 29.41409 .767187C29.32347 .767187 29.3094 .718437 29.28847 .64875C29.19097 .341875 28.93284 .055938 28.64003 .055938C28.45847 .055938 28.32597 .1325 28.32597 .509063C28.32597 .683438 28.36784 1.04625 28.39597 1.23469C28.42378 1.42281 28.42378 1.4925 28.42378 1.5625C28.42378 1.64625 28.42378 1.86937 28.22847 2.07844C28.09597 2.225 27.90753 2.31562 27.75409 2.37156Z"></path>
            <path d="M40.45546 6.69322C40.60484 6.69322 40.79421 6.69322 40.79421 6.89259C40.79421 7.09165 40.60484 7.09165 40.46546 7.09165H34.498588C34.359213 7.09165 34.169838 7.09165 34.169838 6.89259C34.169838 6.69322 34.359213 6.69322 34.508588 6.69322H40.45546ZM40.46546 4.76072C40.60484 4.76072 40.79421 4.76072 40.79421 4.96009C40.79421 5.15947 40.60484 5.15947 40.45546 5.15947H34.508588C34.359213 5.15947 34.169838 5.15947 34.169838 4.96009C34.169838 4.76072 34.359213 4.76072 34.498588 4.76072H40.46546Z"></path>
            <path d="M47.0565 9.81134C47.0565 10.05041 47.0565 10.07009 46.8271 10.07009C46.2096 9.43259 45.333 9.43259 45.0143 9.43259V9.12384C45.2134 9.12384 45.8012 9.12384 46.3193 9.38291V4.222905C46.3193 3.864468 46.2893 3.74478 45.3927 3.74478H45.074V3.43603C45.4227 3.46603 46.2893 3.46603 46.6877 3.46603C47.0862 3.46603 47.9527 3.46603 48.3015 3.43603V3.74478H47.9827C47.0862 3.74478 47.0565 3.854467 47.0565 4.222905V9.81134ZM53.6912 6.62353C53.6912 7.42041 53.6415 8.21728 53.2927 8.95447C52.8346 9.91072 52.0177 10.07009 51.5993 10.07009C51.0015 10.07009 50.2743 9.81134 49.8662 8.88478C49.5474 8.19759 49.4974 7.42041 49.4974 6.62353C49.4974 5.87665 49.5374 4.98009 49.9459 4.222905C50.374 3.41603 51.1012 3.216968 51.5893 3.216968C52.1271 3.216968 52.8843 3.42603 53.3227 4.37228C53.6415 5.05978 53.6912 5.83666 53.6912 6.62353ZM51.5893 3.43603C51.2009 3.43603 50.613 3.685093 50.4337 4.64134C50.3243 5.23915 50.3243 6.1554 50.3243 6.74322C50.3243 7.38072 50.3243 8.03822 50.404 8.57603C50.5934 9.76134 51.3402 9.85103 51.5893 9.85103C51.918 9.85103 52.5755 9.67165 52.7646 8.68572C52.8643 8.12791 52.8643 7.37072 52.8643 6.74322C52.8643 5.99603 52.8643 5.31884 52.7549 4.68103C52.6052 3.73478 52.0377 3.43603 51.5893 3.43603Z"></path>
            <path d="M57.708753 7.72947V7.51009H57.928128C58.216878 7.51009 58.48594 7.47041 58.48594 7.09165V4.47197C58.48594 3.844468 58.147191 3.665092 57.708753 3.665092V3.44603H59.54157V3.665092C59.14313 3.665092 58.76469 3.814468 58.76469 4.44197L58.77469 7.39072C58.80469 7.26103 58.87438 7.13166 58.93407 7.00228C59.39219 5.87665 59.85063 4.75103 60.35844 3.645092C60.38844 3.565405 60.43813 3.45603 60.53782 3.45603H60.54782C60.6575 3.46603 60.69719 3.595405 60.73719 3.685093L61.03594 4.40228C61.40438 5.29884 61.78313 6.1854 62.17157 7.07197C62.23125 7.21134 62.30094 7.35072 62.34094 7.49009L62.35063 4.07353C62.35063 3.675092 62.02219 3.665092 61.63344 3.665092H61.57375V3.44603H63.74532V3.665092H63.51625C63.23719 3.665092 62.96844 3.705093 62.96844 4.11353V7.05197C62.96844 7.4804 63.2275 7.51009 63.74532 7.51009V7.72947H62.45032C62.23125 7.72947 62.19125 7.59978 62.13157 7.43041C62.03188 7.20134 61.9325 6.98228 61.84282 6.75322L61.09563 4.99009C60.97625 4.72103 60.88657 4.44197 60.74688 4.183217C60.31875 5.26884 59.82063 6.34478 59.3725 7.43041C59.3025 7.57978 59.29282 7.72947 59.04375 7.72947H57.708753ZM64.36875 3.75478V3.44603H66.52032V3.75478C66.20157 3.75478 65.79313 3.904155 65.77344 4.252905C65.77344 4.352592 65.82313 4.44197 65.85313 4.53165C65.9625 4.8604 66.06219 5.18915 66.19157 5.5079C66.22157 5.59759 66.22157 5.71728 66.36094 5.71728H68.6222C68.7419 5.71728 68.7516 5.60759 68.7916 5.5179L69.0006 4.8904C69.1003 4.63134 69.2797 4.252905 69.2797 4.04353V4.003842C69.19 3.76478 68.8016 3.75478 68.5125 3.75478H68.4528V3.44603H71.1922V3.75478H70.9034C70.6741 3.75478 70.435 3.77478 70.3156 3.894155C70.2059 4.013842 70.1663 4.183217 70.1066 4.332592C69.5984 5.81666 69.0903 7.31103 68.5625 8.79509C68.3831 9.31322 68.1441 9.86103 68.0147 10.38884C67.9747 10.51853 67.915 10.57822 67.7756 10.57822C67.5763 10.57822 67.5366 10.36916 67.4766 10.16978C66.91875 8.48634 66.30125 6.8229 65.73344 5.14947L65.52438 4.55165C65.46438 4.37228 65.40469 4.193218 65.26532 4.05353C65.03625 3.814468 64.6875 3.75478 64.36875 3.75478ZM66.37094 6.02603L67.4866 9.26322L68.6122 6.02603H66.37094Z"></path>
        </g>
    </g>
</svg>