<svg xmlns="http://www.w3.org/2000/svg" xmlns:xlink="http://www.w3.org/1999/xlink" version="1.1" width="100%"
     viewBox="0 -37.993 288 37.993">
    <g id="page1">
        <g transform="matrix(1 0 0 -1 0 0)">
            <path d="M.448125 24.75466C.368437 24.41591 .34875 24.34622-.089688 24.34622C-.209063 24.34622-.31875 24.34622-.31875 24.15716C-.31875 24.07748-.269062 24.03747-.189375 24.03747C.079687 24.03747 .368437 24.06748 .6475 24.06748C.97625 24.06748 1.315 24.03747 1.63375 24.03747C1.68344 24.03747 1.81281 24.03747 1.81281 24.23685C1.81281 24.34622 1.71344 24.34622 1.57375 24.34622C1.07594 24.34622 1.07594 24.41591 1.07594 24.5056C1.07594 24.62529 1.49406 26.249038 1.56406 26.497788C1.69344 26.209038 1.97219 25.860288 2.48031 25.860288C3.63594 25.860288 4.88094 27.31466 4.88094 28.77904C4.88094 29.71529 4.31313 30.37279 3.55625 30.37279C3.05813 30.37279 2.58 30.01435 2.25125 29.6256C2.15156 30.16373 1.72344 30.37279 1.35469 30.37279C.896563 30.37279 .707187 29.98435 .6175 29.80498C.438437 29.46623 .30875 28.86873 .30875 28.83873C.30875 28.73935 .408437 28.73935 .428438 28.73935C.527812 28.73935 .537812 28.74904 .597812 28.96841C.766875 29.6756 .96625 30.15372 1.32469 30.15372C1.49406 30.15372 1.63375 30.07404 1.63375 29.6956C1.63375 29.46623 1.60375 29.35685 1.56406 29.18747L.448125 24.75466ZM2.20156 29.07779C2.27125 29.34685 2.54 29.6256 2.71937 29.77529C3.06813 30.08404 3.35687 30.15372 3.52625 30.15372C3.92469 30.15372 4.16375 29.80498 4.16375 29.21747C4.16375 28.62966 3.835 27.48404 3.65563 27.1056C3.31719 26.408413 2.83906 26.079663 2.47031 26.079663C1.81281 26.079663 1.68344 26.906225 1.68344 26.966225C1.68344 26.98591 1.68344 27.00591 1.71344 27.1256L2.20156 29.07779Z"></path>
            <path d="M7.34856 28.91226C7.34856 29.10039 7.33481 29.10726 7.13949 29.10726C6.69293 28.66789 6.05824 28.66101 5.772307 28.66101V28.40976C5.939807 28.40976 6.40012 28.40976 6.78356 28.60507V25.047886C6.78356 24.817886 6.78356 24.727261 6.08606 24.727261H5.821057V24.476011C5.946682 24.482886 6.80449 24.503824 7.06262 24.503824C7.27887 24.503824 8.15762 24.482886 8.31106 24.476011V24.727261H8.04606C7.34856 24.727261 7.34856 24.817886 7.34856 25.047886V28.91226Z"></path>
            <path d="M19.09246 29.22716C19.24183 29.22716 19.43121 29.22716 19.43121 29.42654C19.43121 29.6256 19.24183 29.6256 19.10246 29.6256H13.135582C12.996207 29.6256 12.806832 29.6256 12.806832 29.42654C12.806832 29.22716 12.996207 29.22716 13.145582 29.22716H19.09246ZM19.10246 27.29466C19.24183 27.29466 19.43121 27.29466 19.43121 27.49404C19.43121 27.69341 19.24183 27.69341 19.09246 27.69341H13.145582C12.996207 27.69341 12.806832 27.69341 12.806832 27.49404C12.806832 27.29466 12.996207 27.29466 13.135582 27.29466H19.10246Z"></path>
            <path d="M23.213138 24.75466C23.13345 24.41591 23.113763 24.34622 22.675325 24.34622C22.55595 24.34622 22.446263 24.34622 22.446263 24.15716C22.446263 24.07748 22.49595 24.03747 22.575638 24.03747C22.8447 24.03747 23.13345 24.06748 23.412512 24.06748C23.741263 24.06748 24.08001 24.03747 24.39876 24.03747C24.44845 24.03747 24.57782 24.03747 24.57782 24.23685C24.57782 24.34622 24.47845 24.34622 24.33876 24.34622C23.84095 24.34622 23.84095 24.41591 23.84095 24.5056C23.84095 24.62529 24.25908 26.249038 24.32907 26.497788C24.45845 26.209038 24.7372 25.860288 25.24532 25.860288C26.40095 25.860288 27.64595 27.31466 27.64595 28.77904C27.64595 29.71529 27.07814 30.37279 26.32126 30.37279C25.82314 30.37279 25.34501 30.01435 25.01626 29.6256C24.91658 30.16373 24.48845 30.37279 24.1197 30.37279C23.661575 30.37279 23.4722 29.98435 23.382513 29.80498C23.20345 29.46623 23.073763 28.86873 23.073763 28.83873C23.073763 28.73935 23.17345 28.73935 23.19345 28.73935C23.292825 28.73935 23.302825 28.74904 23.362825 28.96841C23.531887 29.6756 23.731263 30.15372 24.0897 30.15372C24.25908 30.15372 24.39876 30.07404 24.39876 29.6956C24.39876 29.46623 24.36876 29.35685 24.32907 29.18747L23.213138 24.75466ZM24.96658 29.07779C25.03626 29.34685 25.30501 29.6256 25.48439 29.77529C25.83314 30.08404 26.12189 30.15372 26.29126 30.15372C26.6897 30.15372 26.92876 29.80498 26.92876 29.21747C26.92876 28.62966 26.60001 27.48404 26.42064 27.1056C26.0822 26.408413 25.60408 26.079663 25.23532 26.079663C24.57782 26.079663 24.44845 26.906225 24.44845 26.966225C24.44845 26.98591 24.44845 27.00591 24.47845 27.1256L24.96658 29.07779Z"></path>
            <path d="M31.30049 25.74539H31.0633C31.04236 25.59195 30.97267 25.180386 30.88174 25.110699C30.82611 25.068824 30.28892 25.068824 30.19142 25.068824H28.90799C29.64017 25.71757 29.88455 25.91289 30.30299 26.2407C30.81924 26.65226 31.30049 27.08476 31.30049 27.74726C31.30049 28.59132 30.56111 29.10726 29.6683 29.10726C28.8033 29.10726 28.217362 28.5007 28.217362 27.85882C28.217362 27.5032 28.517362 27.4682 28.587049 27.4682C28.754549 27.4682 28.95674 27.58695 28.95674 27.83789C28.95674 27.96351 28.90799 28.20757 28.545174 28.20757C28.761424 28.70289 29.2358 28.85632 29.56361 28.85632C30.26111 28.85632 30.62392 28.31226 30.62392 27.74726C30.62392 27.14039 30.19142 26.65914 29.96799 26.4082L28.287049 24.747886C28.217362 24.685386 28.217362 24.671324 28.217362 24.476011H31.09111L31.30049 25.74539Z"></path>
            <path d="M41.85747 29.22716C42.00685 29.22716 42.19622 29.22716 42.19622 29.42654C42.19622 29.6256 42.00685 29.6256 41.86747 29.6256H35.900595C35.76122 29.6256 35.571845 29.6256 35.571845 29.42654C35.571845 29.22716 35.76122 29.22716 35.910595 29.22716H41.85747ZM41.86747 27.29466C42.00685 27.29466 42.19622 27.29466 42.19622 27.49404C42.19622 27.69341 42.00685 27.69341 41.85747 27.69341H35.910595C35.76122 27.69341 35.571845 27.69341 35.571845 27.49404C35.571845 27.29466 35.76122 27.29466 35.900595 27.29466H41.86747Z"></path>
            <path d="M47.249136 29.564044C47.200386 29.36873 47.186324 29.31279 46.907261 29.31279C46.816636 29.31279 46.719136 29.31279 46.719136 29.16654C46.719136 29.08967 46.781949 29.06186 46.816636 29.06186C46.997886 29.06186 47.228199 29.08967 47.416636 29.08967C47.653824 29.08967 47.91882 29.06186 48.14882 29.06186C48.21164 29.06186 48.28851 29.08279 48.28851 29.21529C48.28851 29.31279 48.1907 29.31279 48.10695 29.31279C47.95351 29.31279 47.76539 29.31279 47.76539 29.39654C47.76539 29.431544 47.81414 29.612794 47.84195 29.717481C47.9257 30.087169 48.02351 30.463731 48.10007 30.756856C48.18382 30.617169 48.40007 30.345294 48.81851 30.345294C49.66945 30.345294 50.61101 31.286856 50.61101 32.32623C50.61101 33.14217 50.04601 33.49092 49.56476 33.49092C49.13226 33.49092 48.76257 33.19811 48.57445 33.00279C48.4557 33.40029 48.06507 33.49092 47.85601 33.49092C47.583824 33.49092 47.416636 33.30967 47.305074 33.12123C47.165386 32.88404 47.053824 32.46561 47.053824 32.42373C47.053824 32.33311 47.151636 32.33311 47.172261 32.33311C47.270074 32.33311 47.276949 32.35404 47.326011 32.54248C47.430386 32.94686 47.562886 33.29561 47.83507 33.29561C48.01632 33.29561 48.06507 33.14217 48.06507 32.95373C48.06507 32.87717 48.05132 32.78654 48.04414 32.74467L47.249136 29.564044ZM48.56726 32.65404C48.97195 33.19092 49.3207 33.29561 49.54382 33.29561C49.81601 33.29561 50.0532 33.09342 50.0532 32.61904C50.0532 32.33311 49.89976 31.62154 49.69039 31.217169C49.51601 30.875294 49.17414 30.540606 48.81851 30.540606C48.3232 30.540606 48.19789 31.077481 48.19789 31.147481C48.19789 31.175294 48.21164 31.224044 48.21851 31.251856L48.56726 32.65404Z"></path>
            <path d="M52.47704 31.06706C52.93548 31.06706 53.23923 30.783 53.23923 30.289874C53.23923 29.781749 52.92548 29.512687 52.48204 29.512687C52.42736 29.512687 51.83454 29.512687 51.580168 29.771749C51.784543 29.801749 51.84423 29.956124 51.84423 30.075499C51.84423 30.259874 51.704856 30.379562 51.540481 30.379562C51.381106 30.379562 51.231418 30.274874 51.231418 30.065812C51.231418 29.547687 51.819543 29.308312 52.49704 29.308312C53.31423 29.308312 53.82236 29.801749 53.82236 30.284874C53.82236 30.69331 53.45861 31.04206 52.89048 31.17175C53.48861 31.36612 53.64798 31.74456 53.64798 32.02362C53.64798 32.43206 53.13986 32.73612 52.51204 32.73612C51.89923 32.73612 51.405793 32.47706 51.405793 32.02862C51.405793 31.79456 51.595168 31.73456 51.689856 31.73456C51.83454 31.73456 51.97392 31.83925 51.97392 32.01862C51.97392 32.13331 51.91423 32.27269 51.734856 32.30269C51.94892 32.53175 52.39236 32.54675 52.49704 32.54675C52.86079 32.54675 53.11986 32.36237 53.11986 32.02362C53.11986 31.73456 52.93048 31.28144 52.40736 31.25144C52.26798 31.24644 52.24798 31.24144 52.11829 31.23644C52.06361 31.23144 52.00892 31.22644 52.00892 31.15175C52.00892 31.06706 52.05861 31.06706 52.14829 31.06706H52.47704Z"></path>
            <path d="M46.726561 28.460937H54.72265" stroke="#000" fill="none" stroke-width=".398"
                  stroke-miterlimit="10"></path>
            <path d="M52.26051 23.80438H52.02332C52.00238 23.65094 51.93269 23.239378 51.84176 23.169691C51.78613 23.127816 51.24894 23.127816 51.15144 23.127816H49.86801C50.60019 23.77657 50.84457 23.97188 51.26301 24.29969C51.77926 24.71125 52.26051 25.14375 52.26051 25.80625C52.26051 26.65032 51.52113 27.16625 50.62832 27.16625C49.76332 27.16625 49.177381 26.55969 49.177381 25.91782C49.177381 25.56219 49.477381 25.52719 49.547068 25.52719C49.714568 25.52719 49.91676 25.64594 49.91676 25.89688C49.91676 26.0225 49.86801 26.26657 49.505193 26.26657C49.721443 26.76188 50.19582 26.91532 50.52363 26.91532C51.22113 26.91532 51.58394 26.37125 51.58394 25.80625C51.58394 25.19938 51.15144 24.71813 50.92801 24.46719L49.247068 22.806878C49.177381 22.744378 49.177381 22.730316 49.177381 22.535003H52.05113L52.26051 23.80438Z"></path>
            <path d="M62.70702 19.6168C62.72702 19.6068 62.81671 19.5071 62.82671 19.5071H63.04577C63.07546 19.5071 63.15546 19.5171 63.15546 19.6068C63.15546 19.6468 63.13546 19.6665 63.11546 19.6965C62.75671 20.0549 62.2189 20.603 61.6014 21.6987C60.52546 23.6112 60.12702 26.0718 60.12702 28.4624C60.12702 32.88522 61.38234 35.4849 63.12546 37.248029C63.15546 37.278029 63.15546 37.308029 63.15546 37.327717C63.15546 37.427404 63.08546 37.427404 62.96608 37.427404C62.8364 37.427404 62.81671 37.427404 62.72702 37.347717C61.78077 36.530842 60.71484 35.14615 60.02734 33.04459C59.59921 31.72959 59.37015 30.12584 59.37015 28.4724C59.37015 26.1115 59.79827 23.4418 61.36234 21.1308C61.63108 20.7424 61.99983 20.334 61.99983 20.324C62.09952 20.2046 62.2389 20.0452 62.31858 19.9752L62.70702 19.6168Z"></path>
            <path d="M66.45576 32.34529C66.45576 32.58435 66.45576 32.60404 66.22638 32.60404C65.60888 31.96654 64.73232 31.96654 64.413569 31.96654V31.65779C64.61263 31.65779 65.20044 31.65779 65.71857 31.91685V26.75685C65.71857 26.398413 65.68857 26.278725 64.79201 26.278725H64.473257V25.969975C64.82201 25.999975 65.68857 25.999975 66.08701 25.999975C66.48544 25.999975 67.35201 25.999975 67.70076 25.969975V26.278725H67.38201C66.48544 26.278725 66.45576 26.388413 66.45576 26.75685V32.34529Z"></path>
            <path d="M74.7933 28.26091H77.5726C77.712 28.26091 77.9014 28.26091 77.9014 28.46029C77.9014 28.65935 77.712 28.65935 77.5726 28.65935H74.7933V31.44872C74.7933 31.5881 74.7933 31.77748 74.5942 31.77748C74.3948 31.77748 74.3948 31.5881 74.3948 31.44872V28.65935H71.60576C71.46638 28.65935 71.27701 28.65935 71.27701 28.46029C71.27701 28.26091 71.46638 28.26091 71.60576 28.26091H74.3948V25.47185C74.3948 25.332475 74.3948 25.1431 74.5942 25.1431C74.7933 25.1431 74.7933 25.332475 74.7933 25.47185V28.26091Z"></path>
            <path d="M85.30685 21.1585L83.16528 28.62942L81.7806 27.0057L81.93997 26.8563L82.61747 27.65317L84.90841 19.6641C85.23716 19.6641 85.24716 19.6641 85.32685 19.9032L90.7956 37.195986C90.8453 37.345361 90.8453 37.385361 90.8453 37.395361C90.8453 37.504736 90.7656 37.594424 90.64622 37.594424C90.49685 37.594424 90.45685 37.465049 90.41716 37.335361L85.30685 21.1585Z"></path>
            <path d="M90.648434 37.394531H130.7539" stroke="#000" fill="none" stroke-width=".398"
                  stroke-miterlimit="10"></path>
            <path d="M93.57578 32.34529C93.57578 32.58435 93.57578 32.60404 93.3464 32.60404C92.7289 31.96654 91.85234 31.96654 91.533591 31.96654V31.65779C91.73265 31.65779 92.32047 31.65779 92.83859 31.91685V26.75685C92.83859 26.398413 92.80859 26.278725 91.91203 26.278725H91.593279V25.969975C91.94203 25.999975 92.80859 25.999975 93.20703 25.999975S94.47203 25.999975 94.82078 25.969975V26.278725H94.50203C93.60547 26.278725 93.57578 26.388413 93.57578 26.75685V32.34529Z"></path>
            <path d="M101.9132 28.26091H104.6926C104.832 28.26091 105.0213 28.26091 105.0213 28.46029C105.0213 28.65935 104.832 28.65935 104.6926 28.65935H101.9132V31.44872C101.9132 31.5881 101.9132 31.77748 101.7141 31.77748C101.5148 31.77748 101.5148 31.5881 101.5148 31.44872V28.65935H98.7257C98.58633 28.65935 98.39695 28.65935 98.39695 28.46029C98.39695 28.26091 98.58633 28.26091 98.7257 28.26091H101.5148V25.47185C101.5148 25.332475 101.5148 25.1431 101.7141 25.1431C101.9132 25.1431 101.9132 25.332475 101.9132 25.47185V28.26091Z"></path>
            <path d="M116.63421 32.93311C117.17828 33.19811 117.52703 33.52592 117.52703 34.00717C117.52703 34.68373 116.82234 35.04623 116.14578 35.04623C115.37859 35.04623 114.750777 34.54404 114.750777 33.88154C114.750777 33.55373 114.904215 33.31654 115.02984 33.17717C115.155465 33.03061 115.20421 33.00279 115.61578 32.75873C115.22515 32.59123 114.534527 32.21467 114.534527 31.48217C114.534527 30.707794 115.33671 30.275606 116.13203 30.275606C117.01765 30.275606 117.74296 30.840606 117.74296 31.59373C117.74296 32.05404 117.47109 32.44467 117.0664 32.68186C116.97578 32.73779 116.73171 32.87717 116.63421 32.93311ZM115.49703 33.59561C115.31578 33.70029 115.120465 33.88842 115.120465 34.14654C115.120465 34.58592 115.62984 34.84404 116.13203 34.84404C116.67609 34.84404 117.15734 34.50248 117.15734 34.00717C117.15734 33.38623 116.43172 33.07248 116.41796 33.07248C116.4039 33.07248 116.38984 33.07936 116.34109 33.10748L115.49703 33.59561ZM115.8389 32.62592L116.79453 32.07498C116.97578 31.97029 117.32453 31.76123 117.32453 31.349669C117.32453 30.826544 116.74578 30.498731 116.14578 30.498731C115.50421 30.498731 114.952965 30.910294 114.952965 31.48217C114.952965 31.99842 115.33671 32.39592 115.8389 32.62592Z"></path>
            <path d="M121.37244 29.996544C121.37244 29.543106 121.46306 29.06186 122.03494 29.06186C122.879 29.06186 123.28337 30.261544 123.28337 30.414981C123.28337 30.463731 123.24181 30.512481 123.18587 30.512481C123.11619 30.512481 123.09525 30.449981 123.08837 30.421856C122.92087 29.933731 122.46056 29.794356 122.22337 29.794356C121.94431 29.794356 121.79775 29.912794 121.67244 30.470919C122.914 30.910294 123.91119 32.14467 123.91119 33.37936C123.91119 34.47436 123.12306 35.31842 121.88837 35.31842C120.2215 35.31842 118.610248 33.75592 118.610248 32.18654C118.610248 31.063731 119.44025 30.275606 120.63994 30.275606C120.77244 30.275606 121.00962 30.282481 121.37244 30.373106V29.996544ZM120.16556 30.589356C119.80306 30.714981 119.28681 31.077481 119.28681 32.01217C119.28681 32.45873 119.43337 33.38623 120.06806 34.17436C120.50744 34.71154 121.184 35.09529 121.83275 35.09529C122.59306 35.09529 123.23462 34.58592 123.23462 33.56779C123.23462 32.87029 122.89306 31.370606 121.6165 30.735919C121.50494 31.175294 121.32369 31.46811 120.91212 31.46811C120.5215 31.46811 120.13775 31.140294 120.13775 30.770606C120.13775 30.645294 120.14462 30.638106 120.16556 30.589356ZM121.37244 30.624356C121.219 30.568419 120.96087 30.498731 120.68869 30.498731C120.57712 30.498731 120.33306 30.498731 120.33306 30.770606C120.33306 31.035606 120.619 31.272794 120.91212 31.272794C121.16306 31.272794 121.3515 31.161231 121.37244 30.624356Z"></path>
            <path d="M109.000001 28.460937H129.5586" stroke="#000" fill="none" stroke-width=".398"
                  stroke-miterlimit="10"></path>
            <path d="M110.08223 26.42719C110.43785 26.33625 110.64723 26.33625 110.75879 26.33625C111.67942 26.33625 112.22348 26.96407 112.22348 27.06875C112.22348 27.14563 112.17473 27.16625 112.13973 27.16625C112.12567 27.16625 112.11192 27.16625 112.08379 27.14563C111.91661 27.08282 111.54692 26.94313 111.03067 26.94313C110.83535 26.94313 110.46567 26.95719 110.01223 27.13157C109.942543 27.16625 109.928792 27.16625 109.921605 27.16625C109.83098 27.16625 109.83098 27.08969 109.83098 26.97813V24.92032C109.83098 24.80188 109.83098 24.71813 109.942543 24.71813C110.00535 24.71813 110.01223 24.73219 110.08223 24.81594C110.38192 25.19938 110.80754 25.25532 111.05161 25.25532C111.47004 25.25532 111.65848 24.92032 111.69348 24.86469C111.81879 24.63438 111.86067 24.36938 111.86067 23.965C111.86067 23.75563 111.86067 23.344066 111.6516 23.037191C111.47723 22.786253 111.17723 22.618753 110.83535 22.618753C110.38192 22.618753 109.91473 22.869691 109.740355 23.330003C110.00535 23.309378 110.13786 23.483753 110.13786 23.67188C110.13786 23.97188 109.87973 24.0275 109.789105 24.0275C109.775355 24.0275 109.440355 24.0275 109.440355 23.65094C109.440355 23.023128 110.01223 22.395628 110.84942 22.395628C111.74223 22.395628 112.52348 23.058128 112.52348 23.93688C112.52348 24.725 111.92348 25.45063 111.05848 25.45063C110.7516 25.45063 110.38911 25.37375 110.08223 25.10875V26.42719Z"></path>
            <path d="M113.495138 21.684066C113.446388 21.48875 113.432326 21.43282 113.153263 21.43282C113.062638 21.43282 112.965138 21.43282 112.965138 21.28657C112.965138 21.20969 113.027951 21.18188 113.062638 21.18188C113.243888 21.18188 113.474201 21.20969 113.662638 21.20969C113.899826 21.20969 114.16483 21.18188 114.39483 21.18188C114.45764 21.18188 114.53451 21.20282 114.53451 21.33532C114.53451 21.43282 114.4367 21.43282 114.35295 21.43282C114.19951 21.43282 114.01139 21.43282 114.01139 21.51657C114.01139 21.551566 114.06014 21.732816 114.08795 21.837503C114.1717 22.207191 114.26951 22.583753 114.34608 22.876878C114.42983 22.737191 114.64608 22.465316 115.06451 22.465316C115.91545 22.465316 116.85701 23.406878 116.85701 24.44625C116.85701 25.26219 116.29201 25.61094 115.81076 25.61094C115.37826 25.61094 115.00858 25.31813 114.82045 25.12282C114.7017 25.52032 114.31108 25.61094 114.10201 25.61094C113.829826 25.61094 113.662638 25.42969 113.551076 25.24125C113.411388 25.00407 113.299826 24.58563 113.299826 24.54375C113.299826 24.45313 113.397638 24.45313 113.418263 24.45313C113.516076 24.45313 113.522951 24.47407 113.572013 24.6625C113.676388 25.06688 113.808888 25.41563 114.08108 25.41563C114.26233 25.41563 114.31108 25.26219 114.31108 25.07375C114.31108 24.99719 114.29733 24.90657 114.29014 24.86469L113.495138 21.684066ZM114.81326 24.77407C115.21795 25.31094 115.5667 25.41563 115.78983 25.41563C116.06201 25.41563 116.2992 25.21344 116.2992 24.73907C116.2992 24.45313 116.14576 23.74157 115.93639 23.337191C115.76201 22.995316 115.42014 22.660628 115.06451 22.660628C114.5692 22.660628 114.44389 23.197503 114.44389 23.267503C114.44389 23.295316 114.45764 23.344066 114.46451 23.371878L114.81326 24.77407Z"></path>
            <path d="M118.72304 23.18806C119.18148 23.18806 119.48523 22.904 119.48523 22.410876C119.48523 21.902751 119.17148 21.633689 118.72804 21.633689C118.67336 21.633689 118.08054 21.633689 117.82617 21.892751C118.030545 21.922751 118.09023 22.077126 118.09023 22.196501C118.09023 22.380876 117.950857 22.500564 117.786482 22.500564C117.627107 22.500564 117.47742 22.395876 117.47742 22.186814C117.47742 21.668689 118.065545 21.429314 118.74304 21.429314C119.56023 21.429314 120.06836 21.922751 120.06836 22.405876C120.06836 22.81431 119.70461 23.16306 119.13648 23.29275C119.73461 23.48713 119.89398 23.86556 119.89398 24.14463C119.89398 24.55306 119.38586 24.85713 118.75804 24.85713C118.14523 24.85713 117.651795 24.59806 117.651795 24.14963C117.651795 23.91556 117.84117 23.85556 117.935857 23.85556C118.08054 23.85556 118.21992 23.96025 118.21992 24.13963C118.21992 24.25431 118.16023 24.39369 117.980857 24.42369C118.19492 24.65275 118.63836 24.66775 118.74304 24.66775C119.10679 24.66775 119.36586 24.48338 119.36586 24.14463C119.36586 23.85556 119.17648 23.40244 118.65336 23.37244C118.51398 23.36744 118.49398 23.36244 118.3643 23.35744C118.30961 23.35244 118.25492 23.34744 118.25492 23.27275C118.25492 23.18806 118.30461 23.18806 118.39429 23.18806H118.72304Z"></path>
            <path d="M125.95422 26.46875C126.21235 26.84563 126.43547 27.02 126.81204 27.04782C126.89578 27.05469 126.97266 27.06188 126.97266 27.20125C126.97266 27.22219 126.9586 27.29907 126.87485 27.29907C126.70735 27.29907 126.4911 27.27094 126.31672 27.27094C126.0936 27.27094 125.80079 27.29907 125.59141 27.29907C125.5286 27.29907 125.45203 27.27813 125.45203 27.14563C125.45203 27.05469 125.54953 27.04782 125.57766 27.04782C125.80079 27.03375 125.8636 26.95032 125.8636 26.84563C125.8636 26.74782 125.81454 26.67813 125.73797 26.56657L123.45016 23.190628L122.81547 26.755C122.80141 26.8175 122.80141 26.83157 122.80141 26.85938C122.80141 27.04782 123.19203 27.04782 123.24078 27.04782C123.35953 27.04782 123.45016 27.04782 123.45016 27.20125C123.45016 27.20813 123.44328 27.29907 123.33141 27.29907C123.12922 27.29907 122.63391 27.27094 122.43172 27.27094C122.25735 27.27094 121.832035 27.29907 121.65766 27.29907C121.594847 27.29907 121.517972 27.27813 121.517972 27.14563C121.517972 27.04782 121.615785 27.04782 121.692347 27.04782C122.08297 27.04782 122.09016 27.00594 122.12485 26.82469L122.88516 22.583753C122.91297 22.437503 122.92016 22.395628 123.05266 22.395628S123.21985 22.444378 123.28985 22.549066L125.95422 26.46875Z"></path>
            <path d="M127.65481 24.70775C127.65481 24.85713 127.63981 24.85713 127.47543 24.85713C127.12168 24.53838 126.568872 24.53838 126.469185 24.53838H126.384497V24.319H126.469185C126.583872 24.319 126.90762 24.334 127.19668 24.45869V21.967439C127.19668 21.813064 127.19668 21.758064 126.66856 21.758064H126.419185V21.539001C126.69325 21.559001 127.13668 21.559001 127.42575 21.559001C127.71481 21.559001 128.15793 21.559001 128.432 21.539001V21.758064H128.18293C127.65481 21.758064 127.65481 21.813064 127.65481 21.967439V24.70775Z"></path>
            <path d="M134.89979 28.4724C134.89979 31.33115 134.2326 34.36928 132.2701 36.610529C132.13072 36.769904 131.76197 37.158342 131.522911 37.367717C131.453223 37.427404 131.433536 37.427404 131.303849 37.427404C131.204161 37.427404 131.114786 37.427404 131.114786 37.327717C131.114786 37.288029 131.154474 37.248029 131.174474 37.228342C131.513223 36.879592 132.05104 36.331779 132.66854 35.23584C133.74447 33.32334 134.14291 30.86303 134.14291 28.4724C134.14291 24.149 132.9476 21.5093 131.154474 19.6865C131.134474 19.6665 131.114786 19.6368 131.114786 19.6068C131.114786 19.5071 131.204161 19.5071 131.303849 19.5071C131.433536 19.5071 131.453223 19.5071 131.542911 19.5868C132.48916 20.4037 133.5551 21.7883 134.2426 23.8902C134.68072 25.2549 134.89979 26.8687 134.89979 28.4724Z"></path>
            <path d="M4.661885 10.18164C4.661885 10.71945 4.402825 10.87882 4.223455 10.87882C3.974385 10.87882 3.735325 10.61976 3.735325 10.4007C3.735325 10.27132 3.785325 10.21132 3.894705 10.10195C4.104075 9.90257 4.233455 9.64382 4.233455 9.28507C4.233455 8.86664 3.625955 6.585699 2.460325 6.585699C1.952515 6.585699 1.723455 6.934136 1.723455 7.452261C1.723455 8.01007 1.992205 8.73726 2.300955 9.56414C2.370635 9.7332 2.420635 9.87289 2.420635 10.06195C2.420635 10.51039 2.101885 10.87882 1.603765 10.87882C.667515 10.87882 .288765 9.43445 .288765 9.34476C.288765 9.24539 .388452 9.24539 .408452 9.24539C.50814 9.24539 .51814 9.26507 .567827 9.42445C.856577 10.4307 1.285015 10.65976 1.573765 10.65976C1.653455 10.65976 1.822825 10.65976 1.822825 10.34101C1.822825 10.09195 1.723455 9.82289 1.653455 9.64382C1.215325 8.4882 1.085635 8.03007 1.085635 7.60164C1.085635 6.525699 1.962515 6.366324 2.420635 6.366324C4.094075 6.366324 4.661885 9.66351 4.661885 10.18164Z"></path>
            <path d="M8.3515 6.25036H8.11431C8.09338 6.09693 8.02369 5.685364 7.93275 5.615677C7.87713 5.573802 7.33994 5.573802 7.24244 5.573802H5.959C6.69119 6.22255 6.93556 6.41786 7.354 6.74568C7.87025 7.15724 8.3515 7.58974 8.3515 8.25224C8.3515 9.0963 7.61213 9.61224 6.71931 9.61224C5.85431 9.61224 5.268377 9.00568 5.268377 8.3638C5.268377 8.00818 5.568377 7.97318 5.638065 7.97318C5.805565 7.97318 6.00775 8.09193 6.00775 8.34286C6.00775 8.46849 5.959 8.71255 5.59619 8.71255C5.81244 9.20786 6.28681 9.3613 6.61463 9.3613C7.31213 9.3613 7.67494 8.81724 7.67494 8.25224C7.67494 7.64536 7.24244 7.16411 7.019 6.91318L5.338065 5.252864C5.268377 5.190364 5.268377 5.176302 5.268377 4.980989H8.14213L8.3515 6.25036Z"></path>
            <path d="M18.90945 9.7332C19.05882 9.7332 19.2482 9.7332 19.2482 9.93257C19.2482 10.13164 19.05882 10.13164 18.91945 10.13164H12.95257C12.813195 10.13164 12.62382 10.13164 12.62382 9.93257C12.62382 9.7332 12.813195 9.7332 12.96257 9.7332H18.90945ZM18.91945 7.8007C19.05882 7.8007 19.2482 7.8007 19.2482 8.00007C19.2482 8.19945 19.05882 8.19945 18.90945 8.19945H12.96257C12.813195 8.19945 12.62382 8.19945 12.62382 8.00007C12.62382 7.8007 12.813195 7.8007 12.95257 7.8007H18.91945Z"></path>
            <path d="M28.83763 12.14382C29.32575 12.92101 29.74419 12.9507 30.11263 12.9707C30.23231 12.9807 30.24231 13.15007 30.24231 13.16007C30.24231 13.23976 30.19231 13.27945 30.11263 13.27945C29.85356 13.27945 29.56481 13.24976 29.29575 13.24976C28.967 13.24976 28.62856 13.27945 28.30981 13.27945C28.24981 13.27945 28.12044 13.27945 28.12044 13.09039C28.12044 12.9807 28.21013 12.9707 28.27981 12.9707C28.54888 12.9507 28.73794 12.85132 28.73794 12.64195C28.73794 12.49257 28.58856 12.27351 28.58856 12.26351L25.53044 7.402261L24.85325 12.67195C24.85325 12.84132 25.08231 12.9707 25.54044 12.9707C25.67981 12.9707 25.7895 12.9707 25.7895 13.17007C25.7895 13.25945 25.70981 13.27945 25.65013 13.27945C25.25169 13.27945 24.82325 13.24976 24.41481 13.24976C24.23544 13.24976 24.04638 13.25945 23.867 13.25945C23.68763 13.25945 23.498563 13.27945 23.329188 13.27945C23.2595 13.27945 23.139813 13.27945 23.139813 13.09039C23.139813 12.9707 23.2295 12.9707 23.388875 12.9707C23.94669 12.9707 23.95669 12.88101 23.98669 12.63195L24.77356 6.486011C24.80325 6.286636 24.84325 6.256949 24.97263 6.256949C25.132 6.256949 25.172 6.306636 25.25169 6.436011L28.83763 12.14382Z"></path>
            <path d="M30.29709 7.31068C30.84116 7.31068 31.23178 6.93411 31.23178 6.18755C31.23178 5.322864 30.72959 5.064739 30.32522 5.064739C30.04616 5.064739 29.43241 5.141302 29.13928 5.552864C29.46709 5.566927 29.54397 5.796927 29.54397 5.943489C29.54397 6.16661 29.376468 6.32724 29.160218 6.32724C28.964905 6.32724 28.769593 6.20849 28.769593 5.922552C28.769593 5.266927 29.49522 4.841614 30.33897 4.841614C31.30866 4.841614 31.97803 5.490052 31.97803 6.18755C31.97803 6.73161 31.53178 7.27568 30.76459 7.4363C31.49678 7.7013 31.76209 8.22443 31.76209 8.64974C31.76209 9.20099 31.12709 9.61224 30.35303 9.61224C29.57866 9.61224 28.985843 9.23568 28.985843 8.67786C28.985843 8.44068 29.13928 8.30818 29.348655 8.30818C29.56491 8.30818 29.70428 8.46849 29.70428 8.6638C29.70428 8.86599 29.56491 9.01255 29.348655 9.02661C29.59272 9.33349 30.07397 9.41005 30.33209 9.41005C30.64584 9.41005 31.08553 9.25661 31.08553 8.64974C31.08553 8.35693 30.98772 8.03599 30.80647 7.81974C30.57616 7.55474 30.38084 7.54068 30.03209 7.51974C29.85772 7.50599 29.84397 7.50599 29.80897 7.49911C29.79491 7.49911 29.73928 7.48505 29.73928 7.40818C29.73928 7.31068 29.80209 7.31068 29.92053 7.31068H30.29709Z"></path>
            <path d="M42.47342 9.7332C42.62279 9.7332 42.81217 9.7332 42.81217 9.93257C42.81217 10.13164 42.62279 10.13164 42.48342 10.13164H36.51654C36.377165 10.13164 36.18779 10.13164 36.18779 9.93257C36.18779 9.7332 36.377165 9.7332 36.52654 9.7332H42.47342ZM42.48342 7.8007C42.62279 7.8007 42.81217 7.8007 42.81217 8.00007C42.81217 8.19945 42.62279 8.19945 42.47342 8.19945H36.52654C36.377165 8.19945 36.18779 8.19945 36.18779 8.00007C36.18779 7.8007 36.377165 7.8007 36.51654 7.8007H42.48342Z"></path>
            <path d="M52.32922 14.49478C52.58735 14.87166 52.81047 15.04603 53.18703 15.07384C53.27078 15.08072 53.34766 15.08791 53.34766 15.22728C53.34766 15.24822 53.3336 15.32509 53.24985 15.32509C53.08235 15.32509 52.8661 15.29697 52.69172 15.29697C52.4686 15.29697 52.17578 15.32509 51.96641 15.32509C51.9036 15.32509 51.82703 15.30416 51.82703 15.17165C51.82703 15.08072 51.92453 15.07384 51.95266 15.07384C52.17578 15.05978 52.2386 14.97634 52.2386 14.87166C52.2386 14.77384 52.18953 14.70416 52.11297 14.59259L49.82516 11.216655L49.19047 14.78103C49.17641 14.84353 49.17641 14.85759 49.17641 14.88541C49.17641 15.07384 49.56703 15.07384 49.61578 15.07384C49.73453 15.07384 49.82516 15.07384 49.82516 15.22728C49.82516 15.23415 49.81828 15.32509 49.70641 15.32509C49.50422 15.32509 49.00891 15.29697 48.80672 15.29697C48.63235 15.29697 48.207035 15.32509 48.03266 15.32509C47.969847 15.32509 47.892972 15.30416 47.892972 15.17165C47.892972 15.07384 47.990785 15.07384 48.067347 15.07384C48.45797 15.07384 48.46516 15.03197 48.49985 14.85072L49.26016 10.60978C49.28797 10.46353 49.29516 10.421655 49.42766 10.421655S49.59485 10.470405 49.66485 10.575093L52.32922 14.49478Z"></path>
            <path d="M54.02883 12.73272C54.02883 12.88209 54.01383 12.88209 53.84945 12.88209C53.4957 12.56335 52.942892 12.56335 52.843205 12.56335H52.758517V12.34397H52.843205C52.957892 12.34397 53.28164 12.35897 53.5707 12.48366V9.992407C53.5707 9.838033 53.5707 9.783032 53.04258 9.783032H52.793205V9.56397C53.06727 9.58397 53.5107 9.58397 53.79977 9.58397C54.08883 9.58397 54.53195 9.58397 54.80602 9.56397V9.783032H54.55695C54.02883 9.783032 54.02883 9.838033 54.02883 9.992407V12.73272Z"></path>
            <path d="M47.343751 8.964844H55.93359" stroke="#000" fill="none" stroke-width=".398"
                  stroke-miterlimit="10"></path>
            <path d="M53.17549 4.30936H52.9383C52.91736 4.15592 52.84767 3.744356 52.75674 3.674669C52.70111 3.632794 52.16392 3.632794 52.06642 3.632794H50.78299C51.51517 4.28154 51.75955 4.47686 52.17799 4.80467C52.69424 5.21623 53.17549 5.64873 53.17549 6.31123C53.17549 7.15529 52.43611 7.67123 51.5433 7.67123C50.6783 7.67123 50.092362 7.06467 50.092362 6.42279C50.092362 6.06717 50.392362 6.03217 50.462049 6.03217C50.629549 6.03217 50.83174 6.15092 50.83174 6.40186C50.83174 6.52748 50.78299 6.77154 50.420174 6.77154C50.636424 7.26686 51.1108 7.42029 51.43861 7.42029C52.13611 7.42029 52.49892 6.87623 52.49892 6.31123C52.49892 5.70436 52.06642 5.22311 51.84299 4.97217L50.162049 3.311856C50.092362 3.249356 50.092362 3.235294 50.092362 3.039981H52.96611L53.17549 4.30936Z"></path>
            <path d="M63.92096 .1218C63.94096 .1118 64.03065 .0121 64.04065 .0121H64.25971C64.2894 .0121 64.3694 .0221 64.3694 .1118C64.3694 .1518 64.3494 .1715 64.3294 .2015C63.97065 .56 63.43284 1.1081 62.81534 2.2037C61.7394 4.1162 61.34096 6.5768 61.34096 8.96746C61.34096 13.39027 62.59627 15.98996 64.3394 17.753086C64.3694 17.783086 64.3694 17.813086 64.3694 17.832773C64.3694 17.932461 64.2994 17.932461 64.18002 17.932461C64.05034 17.932461 64.03065 17.932461 63.94096 17.852773C62.99471 17.035898 61.92877 15.65121 61.24127 13.54965C60.81315 12.23465 60.58409 10.6309 60.58409 8.97746C60.58409 6.6165 61.01221 3.9468 62.57627 1.6359C62.84502 1.2475 63.21377 .839 63.21377 .829C63.31346 .7096 63.45284 .5503 63.53252 .4803L63.92096 .1218Z"></path>
            <path d="M67.66872 12.85132C67.66872 13.09039 67.66872 13.11007 67.43934 13.11007C66.82184 12.47257 65.94528 12.47257 65.626528 12.47257V12.16382C65.82559 12.16382 66.4134 12.16382 66.93153 12.42289V7.262886C66.93153 6.904449 66.90153 6.784761 66.00497 6.784761H65.686216V6.476011C66.03497 6.506011 66.90153 6.506011 67.29997 6.506011C67.6984 6.506011 68.56497 6.506011 68.91372 6.476011V6.784761H68.59497C67.6984 6.784761 67.66872 6.894449 67.66872 7.262886V12.85132Z"></path>
            <path d="M76.0062 8.76695H78.7856C78.925 8.76695 79.1143 8.76695 79.1143 8.96632C79.1143 9.16539 78.925 9.16539 78.7856 9.16539H76.0062V11.95476C76.0062 12.09414 76.0062 12.28351 75.8072 12.28351C75.6078 12.28351 75.6078 12.09414 75.6078 11.95476V9.16539H72.81872C72.67934 9.16539 72.48997 9.16539 72.48997 8.96632C72.48997 8.76695 72.67934 8.76695 72.81872 8.76695H75.6078V5.977886C75.6078 5.838511 75.6078 5.649136 75.8072 5.649136C76.0062 5.649136 76.0062 5.838511 76.0062 5.977886V8.76695Z"></path>
            <path d="M86.51988 1.6635L84.37832 9.1344L82.99363 7.5107L83.15301 7.3613L83.83051 8.15815L86.12145 .1691C86.4502 .1691 86.4602 .1691 86.53988 .4082L92.0086 17.700964C92.0583 17.850339 92.0583 17.890339 92.0583 17.900339C92.0583 18.009714 91.9786 18.099402 91.85926 18.099402C91.70988 18.099402 91.66988 17.970027 91.6302 17.840339L86.51988 1.6635Z"></path>
            <path d="M91.859375 17.898438H131.9687" stroke="#000" fill="none" stroke-width=".398"
                  stroke-miterlimit="10"></path>
            <path d="M94.78972 12.85132C94.78972 13.09039 94.78972 13.11007 94.56034 13.11007C93.94284 12.47257 93.06628 12.47257 92.74753 12.47257V12.16382C92.94659 12.16382 93.53441 12.16382 94.05253 12.42289V7.262886C94.05253 6.904449 94.02253 6.784761 93.12597 6.784761H92.807217V6.476011C93.15597 6.506011 94.02253 6.506011 94.42097 6.506011S95.68597 6.506011 96.03472 6.476011V6.784761H95.71597C94.81941 6.784761 94.78972 6.894449 94.78972 7.262886V12.85132Z"></path>
            <path d="M103.1272 8.76695H105.9066C106.046 8.76695 106.2353 8.76695 106.2353 8.96632C106.2353 9.16539 106.046 9.16539 105.9066 9.16539H103.1272V11.95476C103.1272 12.09414 103.1272 12.28351 102.9282 12.28351C102.7288 12.28351 102.7288 12.09414 102.7288 11.95476V9.16539H99.93972C99.80034 9.16539 99.61097 9.16539 99.61097 8.96632C99.61097 8.76695 99.80034 8.76695 99.93972 8.76695H102.7288V5.977886C102.7288 5.838511 102.7288 5.649136 102.9282 5.649136C103.1272 5.649136 103.1272 5.838511 103.1272 5.977886V8.76695Z"></path>
            <path d="M117.84725 13.43816C118.39131 13.70316 118.74006 14.03098 118.74006 14.51223C118.74006 15.18879 118.03538 15.55129 117.35881 15.55129C116.59163 15.55129 115.963814 15.0491 115.963814 14.3866C115.963814 14.05879 116.117252 13.8216 116.242877 13.68222C116.368502 13.53566 116.41725 13.50785 116.82881 13.26379C116.43819 13.09629 115.747564 12.71973 115.747564 11.98722C115.747564 11.21285 116.54975 10.780663 117.34506 10.780663C118.23069 10.780663 118.956 11.345662 118.956 12.09879C118.956 12.5591 118.68413 12.94973 118.27944 13.18691C118.18881 13.24285 117.94475 13.38222 117.84725 13.43816ZM116.71006 14.10066C116.52881 14.20535 116.333502 14.39347 116.333502 14.6516C116.333502 15.09098 116.84288 15.3491 117.34506 15.3491C117.88913 15.3491 118.37038 15.00754 118.37038 14.51223C118.37038 13.89129 117.64475 13.57754 117.631 13.57754C117.61694 13.57754 117.60288 13.58441 117.55413 13.61254L116.71006 14.10066ZM117.05194 13.13097L118.00756 12.58004C118.18881 12.47535 118.53756 12.26629 118.53756 11.854725C118.53756 11.3316 117.95881 11.003787 117.35881 11.003787C116.71725 11.003787 116.166002 11.41535 116.166002 11.98722C116.166002 12.50347 116.54975 12.90098 117.05194 13.13097Z"></path>
            <path d="M122.58547 10.5016C122.58547 10.048163 122.6761 9.56691 123.24797 9.56691C124.09203 9.56691 124.49641 10.7666 124.49641 10.920037C124.49641 10.968787 124.45485 11.017537 124.39891 11.017537C124.32922 11.017537 124.30828 10.955037 124.30141 10.926913C124.13391 10.438788 123.6736 10.299412 123.43641 10.299412C123.15735 10.299412 123.01078 10.41785 122.88547 10.975975C124.12704 11.41535 125.12422 12.64973 125.12422 13.88441C125.12422 14.97941 124.3361 15.82347 123.10141 15.82347C121.43454 15.82347 119.823285 14.26098 119.823285 12.6916C119.823285 11.568787 120.65328 10.780663 121.85297 10.780663C121.98547 10.780663 122.22266 10.787537 122.58547 10.878163V10.5016ZM121.3786 11.094413C121.0161 11.220038 120.49985 11.582538 120.49985 12.51722C120.49985 12.96379 120.64641 13.89129 121.2811 14.67941C121.72047 15.2166 122.39703 15.60035 123.04578 15.60035C123.8061 15.60035 124.44766 15.09098 124.44766 14.07285C124.44766 13.37535 124.1061 11.875662 122.82953 11.240975C122.71797 11.68035 122.53672 11.97316 122.12516 11.97316C121.73453 11.97316 121.35079 11.64535 121.35079 11.275662C121.35079 11.15035 121.35766 11.143163 121.3786 11.094413ZM122.58547 11.129413C122.43203 11.073475 122.17391 11.003787 121.90172 11.003787C121.79016 11.003787 121.5461 11.003787 121.5461 11.275662C121.5461 11.540663 121.83204 11.77785 122.12516 11.77785C122.3761 11.77785 122.56453 11.666288 122.58547 11.129413Z"></path>
            <path d="M110.214847 8.964844H130.7734" stroke="#000" fill="none" stroke-width=".398"
                  stroke-miterlimit="10"></path>
            <path d="M111.29527 6.93217C111.65089 6.84123 111.86027 6.84123 111.97183 6.84123C112.89245 6.84123 113.43652 7.46904 113.43652 7.57373C113.43652 7.65061 113.38777 7.67123 113.35277 7.67123C113.3387 7.67123 113.32495 7.67123 113.29683 7.65061C113.12964 7.58779 112.75995 7.44811 112.2437 7.44811C112.04839 7.44811 111.6787 7.46217 111.22527 7.63654C111.155579 7.67123 111.141829 7.67123 111.134642 7.67123C111.044017 7.67123 111.044017 7.59467 111.044017 7.48311V5.42529C111.044017 5.30686 111.044017 5.22311 111.155579 5.22311C111.21839 5.22311 111.22527 5.23717 111.29527 5.32092C111.59495 5.70436 112.02058 5.76029 112.26464 5.76029C112.68308 5.76029 112.87152 5.42529 112.90652 5.36967C113.03183 5.13936 113.0737 4.87436 113.0737 4.46998C113.0737 4.26061 113.0737 3.849044 112.86464 3.542169C112.69027 3.291231 112.39027 3.123731 112.04839 3.123731C111.59495 3.123731 111.127767 3.374669 110.953392 3.834981C111.21839 3.814356 111.35089 3.988731 111.35089 4.17686C111.35089 4.47686 111.092767 4.53248 111.002142 4.53248C110.988392 4.53248 110.653392 4.53248 110.653392 4.15592C110.653392 3.528106 111.22527 2.900606 112.06245 2.900606C112.95527 2.900606 113.73652 3.563106 113.73652 4.44186C113.73652 5.22998 113.13652 5.95561 112.27152 5.95561C111.96464 5.95561 111.60214 5.87873 111.29527 5.61373V6.93217Z"></path>
            <path d="M114.708097 2.189044C114.659347 1.99373 114.645284 1.93779 114.366222 1.93779C114.275597 1.93779 114.178097 1.93779 114.178097 1.79154C114.178097 1.71467 114.240909 1.68686 114.275597 1.68686C114.456847 1.68686 114.687159 1.71467 114.875597 1.71467C115.112784 1.71467 115.37778 1.68686 115.60778 1.68686C115.6706 1.68686 115.74747 1.70779 115.74747 1.84029C115.74747 1.93779 115.64966 1.93779 115.56591 1.93779C115.41247 1.93779 115.22435 1.93779 115.22435 2.02154C115.22435 2.056544 115.2731 2.237794 115.30091 2.342481C115.38466 2.712169 115.48247 3.088731 115.55903 3.381856C115.64278 3.242169 115.85903 2.970294 116.27747 2.970294C117.12841 2.970294 118.06997 3.911856 118.06997 4.95123C118.06997 5.76717 117.50497 6.11592 117.02372 6.11592C116.59122 6.11592 116.22153 5.82311 116.03341 5.62779C115.91466 6.02529 115.52403 6.11592 115.31497 6.11592C115.042784 6.11592 114.875597 5.93467 114.764034 5.74623C114.624347 5.50904 114.512784 5.09061 114.512784 5.04873C114.512784 4.95811 114.610597 4.95811 114.631222 4.95811C114.729034 4.95811 114.735909 4.97904 114.784972 5.16748C114.889347 5.57186 115.021847 5.92061 115.29403 5.92061C115.47528 5.92061 115.52403 5.76717 115.52403 5.57873C115.52403 5.50217 115.51028 5.41154 115.5031 5.36967L114.708097 2.189044ZM116.02622 5.27904C116.43091 5.81592 116.77966 5.92061 117.00278 5.92061C117.27497 5.92061 117.51216 5.71842 117.51216 5.24404C117.51216 4.95811 117.35872 4.24654 117.14935 3.842169C116.97497 3.500294 116.6331 3.165606 116.27747 3.165606C115.78216 3.165606 115.65685 3.702481 115.65685 3.772481C115.65685 3.800294 115.6706 3.849044 115.67747 3.876856L116.02622 5.27904Z"></path>
            <path d="M119.93608 3.69304C120.39452 3.69304 120.69827 3.40898 120.69827 2.915854C120.69827 2.407729 120.38452 2.138667 119.94108 2.138667C119.88639 2.138667 119.29358 2.138667 119.039207 2.397729C119.243582 2.427729 119.30327 2.582104 119.30327 2.701479C119.30327 2.885854 119.163894 3.005542 118.999519 3.005542C118.840144 3.005542 118.690457 2.900854 118.690457 2.691792C118.690457 2.173667 119.278582 1.934292 119.95608 1.934292C120.77327 1.934292 121.28139 2.427729 121.28139 2.910854C121.28139 3.31929 120.91764 3.66804 120.34952 3.79773C120.94764 3.9921 121.10702 4.37054 121.10702 4.6496C121.10702 5.05804 120.59889 5.3621 119.97108 5.3621C119.35827 5.3621 118.864832 5.10304 118.864832 4.6546C118.864832 4.42054 119.054207 4.36054 119.148894 4.36054C119.29358 4.36054 119.43296 4.46523 119.43296 4.6446C119.43296 4.75929 119.37327 4.89867 119.193894 4.92867C119.40796 5.15773 119.85139 5.17273 119.95608 5.17273C120.31983 5.17273 120.57889 4.98835 120.57889 4.6496C120.57889 4.36054 120.38952 3.90742 119.86639 3.87742C119.72702 3.87242 119.70702 3.86742 119.57733 3.86242C119.52264 3.85742 119.46796 3.85242 119.46796 3.77773C119.46796 3.69304 119.51764 3.69304 119.60733 3.69304H119.93608Z"></path>
            <path d="M127.16816 6.97373C127.42629 7.35061 127.64941 7.52498 128.02597 7.55279C128.10972 7.55967 128.1866 7.56686 128.1866 7.70623C128.1866 7.72717 128.17254 7.80404 128.08879 7.80404C127.92129 7.80404 127.70504 7.77592 127.53066 7.77592C127.30754 7.77592 127.01472 7.80404 126.80535 7.80404C126.74254 7.80404 126.66597 7.78311 126.66597 7.65061C126.66597 7.55967 126.76347 7.55279 126.7916 7.55279C127.01472 7.53873 127.07754 7.45529 127.07754 7.35061C127.07754 7.25279 127.02847 7.18311 126.95191 7.07154L124.6641 3.695606L124.02941 7.25998C124.01535 7.32248 124.01535 7.33654 124.01535 7.36436C124.01535 7.55279 124.40597 7.55279 124.45472 7.55279C124.57347 7.55279 124.6641 7.55279 124.6641 7.70623C124.6641 7.71311 124.65722 7.80404 124.54535 7.80404C124.34316 7.80404 123.84785 7.77592 123.64566 7.77592C123.47129 7.77592 123.045974 7.80404 122.871599 7.80404C122.808786 7.80404 122.731911 7.78311 122.731911 7.65061C122.731911 7.55279 122.829724 7.55279 122.906286 7.55279C123.29691 7.55279 123.3041 7.51092 123.33879 7.32967L124.0991 3.088731C124.12691 2.942481 124.1341 2.900606 124.2666 2.900606S124.43379 2.949356 124.50379 3.054044L127.16816 6.97373Z"></path>
            <path d="M128.86785 5.21273C128.86785 5.3621 128.85285 5.3621 128.68847 5.3621C128.33472 5.04335 127.781909 5.04335 127.682222 5.04335H127.597534V4.82398H127.682222C127.796909 4.82398 128.12066 4.83898 128.40972 4.96367V2.472417C128.40972 2.318042 128.40972 2.263042 127.881597 2.263042H127.632222V2.043979C127.90628 2.063979 128.34972 2.063979 128.63878 2.063979C128.92785 2.063979 129.37097 2.063979 129.64503 2.043979V2.263042H129.39597C128.86785 2.263042 128.86785 2.318042 128.86785 2.472417V5.21273Z"></path>
            <path d="M136.11274 8.97746C136.11274 11.83621 135.44556 14.87434 133.48306 17.115586C133.34368 17.274961 132.97493 17.663398 132.73587 17.872773C132.666182 17.932461 132.646495 17.932461 132.516807 17.932461C132.41712 17.932461 132.327745 17.932461 132.327745 17.832773C132.327745 17.793086 132.367432 17.753086 132.387432 17.733398C132.726182 17.384648 133.26399 16.836836 133.88149 15.7409C134.95743 13.8284 135.35587 11.36809 135.35587 8.97746C135.35587 4.654 134.16056 2.0143 132.367432 .1915C132.347432 .1715 132.327745 .1418 132.327745 .1118C132.327745 .0121 132.41712 .0121 132.516807 .0121C132.646495 .0121 132.666182 .0121 132.75587 .0918C133.70212 .9087 134.76806 2.2934 135.45556 4.3953C135.89368 5.76 136.11274 7.3737 136.11274 8.97746Z"></path>
        </g>
    </g>
</svg>